<svg xmlns="http://www.w3.org/2000/svg" viewBox="0 0 128 128"><path d="M94 38C92.3 38 91 39.3 91 41C91 42.7 92.3 44 94 44L124 44C125.7 44 127 42.7 127 41C127 39.3 125.7 38 124 38L94 38 z M 55.714844 38.771484C51.251953 38.821289 46.837891 40.4375 43.400391 43.5L20.099609 63.800781C18.799609 64.900781 18.1 66.499609 18 68.099609L18 69L18 104L9 104L6 104C4.3 104 3 105.3 3 107C3 108.7 4.3 110 6 110L21 110L44.900391 110C46.500391 110 48 108.69961 48 107.09961C48 105.39961 46.7 104 45 104L24 104L24 68.400391L47.300781 48C51.100781 44.7 56.499609 43.900391 61.099609 45.900391L85.599609 56.800781C86.799609 57.300781 87.800781 58.3 88.300781 59.5C88.800781 60.7 88.800781 62.100781 88.300781 63.300781C87.200781 65.800781 84.299219 67.000391 81.699219 65.900391L63.199219 58C62.399219 57.7 61.499219 57.7 60.699219 58C59.899219 58.4 59.299609 59.000391 59.099609 59.900391L59 60.599609C56.3 69.699609 48.8 76.4 39.5 78C37.9 78.3 36.799609 79.8 37.099609 81.5C37.399609 83 38.599609 84 40.099609 84L40.599609 84C51.299609 82.1 60.000391 74.900391 63.900391 64.900391L79.400391 71.5C85.000391 73.9 91.500781 71.299219 93.800781 65.699219C95.000781 62.999219 95.000391 59.999219 93.900391 57.199219C92.800391 54.499219 90.7 52.299219 88 51.199219L63.599609 40.400391C61.087109 39.275391 58.392578 38.741602 55.714844 38.771484 z M 111 58 A 16 16 0 0 0 95 74 A 16 16 0 0 0 111 90 A 16 16 0 0 0 127 74 A 16 16 0 0 0 111 58 z M 74 84 A 6 6 0 0 0 68 90 A 6 6 0 0 0 74 96 A 6 6 0 0 0 80 90 A 6 6 0 0 0 74 84 z M 56 87C54.3 87 53 88.3 53 90L53 97C53 104.2 58.8 110 66 110L124 110C125.7 110 127 108.7 127 107C127 105.3 125.7 104 124 104L66 104C62.1 104 59 100.9 59 97L59 90C59 88.3 57.7 87 56 87 z" fill="white"/></svg>